<svg width="24" height="22" viewBox="0 0 24 22" fill="none" xmlns="http://www.w3.org/2000/svg">
<path d="M5.35938 21.3828C3.96289 21.3828 3.15234 20.5918 3.15234 19.2246V9.9082L1.88281 10.9824C1.67773 11.1484 1.45312 11.2949 1.17969 11.2949C0.652344 11.2949 0.339844 10.9141 0.339844 10.5137C0.339844 10.2891 0.4375 10.0547 0.652344 9.87891L10.8281 1.33398C11.5605 0.71875 12.459 0.71875 13.1816 1.33398L18.3184 5.65039V3.66797C18.3184 3.23828 18.6016 2.96484 19.0215 2.96484H20.0664C20.4961 2.96484 20.7695 3.23828 20.7695 3.66797V7.71094L23.3477 9.87891C23.5527 10.0547 23.6504 10.25 23.6504 10.543C23.6504 11.0117 23.2793 11.2949 22.8203 11.2949C22.5469 11.2949 22.3223 11.1484 22.127 10.9824L20.7695 9.83984V19.2246C20.7695 20.5918 19.959 21.3828 18.5723 21.3828H5.35938ZM14.8125 13.2676V19.8105H18.2402C18.8555 19.8105 19.1973 19.459 19.1973 18.8242V8.52148L12.3516 2.7793C12.1367 2.58398 11.873 2.58398 11.6582 2.7793L4.72461 8.58984V18.8242C4.72461 19.459 5.06641 19.8105 5.69141 19.8105H9.17773V13.2676C9.17773 12.8184 9.4707 12.5254 9.92969 12.5254H14.0703C14.5195 12.5254 14.8125 12.8184 14.8125 13.2676Z" fill="white"/>
</svg>
