<svg width="24" height="25" viewBox="0 0 24 25" fill="none" xmlns="http://www.w3.org/2000/svg">
<path d="M23.4701 10.2088H22.5278V10.1603H11.9999V14.8393H18.6108C17.6464 17.5631 15.0548 19.5184 11.9999 19.5184C8.12389 19.5184 4.98131 16.3758 4.98131 12.4998C4.98131 8.62377 8.12389 5.48119 11.9999 5.48119C13.7891 5.48119 15.4168 6.15614 16.6562 7.25865L19.9648 3.94997C17.8756 2.00289 15.0811 0.802124 11.9999 0.802124C5.53987 0.802124 0.302246 6.03975 0.302246 12.4998C0.302246 18.9598 5.53987 24.1975 11.9999 24.1975C18.4599 24.1975 23.6976 18.9598 23.6976 12.4998C23.6976 11.7155 23.6169 10.9498 23.4701 10.2088Z" fill="#FFC107"/>
<path d="M1.65015 7.05511L5.49341 9.87366C6.53334 7.29901 9.05184 5.48119 11.9991 5.48119C13.7882 5.48119 15.416 6.15614 16.6553 7.25865L19.964 3.94996C17.8748 2.00289 15.0802 0.802124 11.9991 0.802124C7.506 0.802124 3.60951 3.33876 1.65015 7.05511Z" fill="#FF3D00"/>
<path d="M12 24.1978C15.0215 24.1978 17.767 23.0415 19.8427 21.1611L16.2223 18.0975C15.0084 19.0207 13.5251 19.52 12 19.5188C8.95746 19.5188 6.37403 17.5787 5.40079 14.8713L1.58618 17.8103C3.52214 21.5986 7.45373 24.1978 12 24.1978Z" fill="#4CAF50"/>
<path d="M23.4701 10.2088H22.5279V10.1603H12V14.8393H18.6109C18.1496 16.1357 17.3186 17.2685 16.2205 18.0977L16.2223 18.0966L19.8427 21.1602C19.5865 21.393 23.6977 18.3486 23.6977 12.4998C23.6977 11.7155 23.617 10.9499 23.4701 10.2088Z" fill="#1976D2"/>
</svg>
